<svg width="156" height="87" viewBox="0 0 156 87" fill="none" xmlns="http://www.w3.org/2000/svg">
<path d="M125.575 15.3668C135.248 15.1068 142.378 16.8072 146.965 20.4681C151.637 24.0387 154.078 29.7373 154.289 37.564C154.497 45.3028 152.364 51.0804 147.89 54.8969C143.414 58.6254 136.428 60.6173 126.93 60.8726L115.586 61.1776L116.096 80.1728L105.148 80.4671L103.414 15.9626L125.575 15.3668ZM127.855 51.0793C133.659 50.9232 137.675 49.7152 139.902 47.4553C142.217 45.1929 143.311 41.6873 143.183 36.9385C143.065 32.5415 141.618 29.4562 138.842 27.6828C136.067 25.9093 131.645 25.1041 125.577 25.2672L114.628 25.5616L115.323 51.4162L127.855 51.0793Z" fill="#FF09E6"/>
<path fill-rule="evenodd" clip-rule="evenodd" d="M62.2607 16.205L51.3083 16.2716L51.3681 26.1021L52.7594 26.088L53.3167 80.7884L62.6529 80.7317L62.543 62.6536L71.8501 52.4361L93.3987 80.5448L106.33 80.4662L79.8505 44.3378L105.542 15.942L91.8189 16.0254L62.4516 47.6106L62.2607 16.205Z" fill="#008AFF"/>
<path d="M23.2353 53.6117L11.5088 64.5134L0.841015 59.9259L52.5172 11.9068L63.185 16.4942L63.757 86.9813L53.0892 82.3939L52.9355 66.3835L23.2353 53.6117ZM52.9491 55.3289L52.6381 26.323L31.371 46.0498L52.9491 55.3289Z" fill="#146B57"/>
</svg>
